Screen Shots 



Format                           : MPEG-4
Format profile                   : Base Media / Version 2
Codec ID                         : mp42
File size                        : 162 MiB
Duration                         : 3mn 51s
Overall bit rate                 : 5 877 Kbps
Encoded date                     : UTC 2011-05-15 15:12:35
Tagged date                      : UTC 2011-05-15 15:12:35
gsst                             : 0
gstd                             : 231240
gssd                             : B4A7DAA61MH1335767482114665
gshh                             :

Video
ID                               : 1
Format                           : AVC
Format/Info                      : Advanced Video Codec
Format profile                   : High@L4.0
Format settings, CABAC           : Yes
Format settings, ReFrames        : 1 frame
Format settings, GOP             : M=1, N=44
Codec ID                         : avc1
Codec ID/Info                    : Advanced Video Coding
Duration                         : 3mn 51s
Bit rate mode                    : Variable
Bit rate                         : 5 722 Kbps
Maximum bit rate                 : 11.6 Mbps
Width                            : 1 920 pixels
Height                           : 1 080 pixels
Display aspect ratio             : 16:9
Frame rate mode                  : Constant
Frame rate                       : 25.000 fps
Color space                      : YUV
Chroma subsampling               : 4:2:0
Bit depth                        : 8 bits
Scan type                        : Progressive
Bits/(Pixel*Frame)               : 0.110
Stream size                      : 158 MiB (97%)
Tagged date                      : UTC 2011-05-15 15:12:39

Audio
ID                               : 2
Format                           : AAC
Format/Info                      : Advanced Audio Codec
Format profile                   : LC
Codec ID                         : 40
Duration                         : 3mn 51s
Bit rate mode                    : Variable
Bit rate                         : 151 Kbps
Maximum bit rate                 : 181 Kbps
Channel(s)                       : 2 channels
Channel positions                : Front: L R
Sampling rate                    : 44.1 KHz
Compression mode                 : Lossy
Stream size                      : 4.15 MiB (3%)
Title                            : (C) 2007 Google Inc. v08.13.2007.
Encoded date                     : UTC 2011-05-15 15:12:37
Tagged date                      : UTC 2011-05-15 15:12:39
